HIERARCHY
ROOT Hips
{
	OFFSET 0.00000 0.00000 0.00000
	CHANNELS 6 Xposition Yposition Zposition Zrotation Yrotation Xrotation 
	JOINT LHipJoint
	{
		OFFSET 0 0 0
		CHANNELS 3 Zrotation Yrotation Xrotation
		JOINT LeftHip
		{
			OFFSET 1.65412 -1.54119 0.76744
			CHANNELS 3 Zrotation Yrotation Xrotation
			JOINT LeftKnee
			{
				OFFSET 2.19550 -6.03209 0.00000
				CHANNELS 3 Zrotation Yrotation Xrotation
				JOINT LeftAnkle
				{
					OFFSET 2.38814 -6.56138 0.00000
					CHANNELS 3 Zrotation Yrotation Xrotation
					JOINT LeftToe
					{
						OFFSET 0.17337 -0.47632 1.75875
						CHANNELS 3 Zrotation Yrotation Xrotation
						End Site
						{
							OFFSET 0.00000 -0.00000 0.92050
						}
					}
				}
			}
		}
	}
	JOINT RHipJoint
	{
		OFFSET 0 0 0
		CHANNELS 3 Zrotation Yrotation Xrotation
		JOINT RightHip
		{
			OFFSET -1.40291 -1.54119 0.76744
			CHANNELS 3 Zrotation Yrotation Xrotation
			JOINT RightKnee
			{
				OFFSET -2.22156 -6.10370 0.00000
				CHANNELS 3 Zrotation Yrotation Xrotation
				JOINT RightAnkle
				{
					OFFSET -2.46840 -6.78188 0.00000
					CHANNELS 3 Zrotation Yrotation Xrotation
					JOINT RightToe
					{
						OFFSET -0.15659 -0.43024 1.84117
						CHANNELS 3 Zrotation Yrotation Xrotation
						End Site
						{
							OFFSET -0.00000 -0.00000 0.95587
						}
					}
				}
			}
		}
	}
	JOINT lowerback
	{
		OFFSET 0 0 0
		CHANNELS 3 Zrotation Yrotation Xrotation
		JOINT Chest
		{
			OFFSET -0.01936 1.82120 -0.32061
			CHANNELS 3 Zrotation Yrotation Xrotation
			JOINT Chest2
			{
				OFFSET -0.00532 1.85767 -0.00071
				CHANNELS 3 Zrotation Yrotation Xrotation
				JOINT lowerneck
				{
					OFFSET 0 0 0
					CHANNELS 3 Zrotation Yrotation Xrotation
					JOINT Neck
					{
						OFFSET -0.10687 1.58194 0.10810
						CHANNELS 3 Zrotation Yrotation Xrotation
						JOINT Head
						{
							OFFSET 0.15346 1.57382 -0.25612
							CHANNELS 3 Zrotation Yrotation Xrotation
							End Site
							{
								OFFSET 0.05334 1.61251 -0.10513
							}
						}
					}
				}
				JOINT LeftCollar
				{
					OFFSET 0 0 0
					CHANNELS 3 Zrotation Yrotation Xrotation
					JOINT LeftShoulder
					{
						OFFSET 2.85758 0.89498 -0.01485
CHANNELS 3 Zrotation Xrotation Yrotation
						JOINT LeftElbow
						{
OFFSET 0 -4.791850 -0.000000
CHANNELS 3 Zrotation Xrotation Yrotation
							JOINT LeftWrist
							{
OFFSET 0 -2.655530 0.000000
CHANNELS 3 Zrotation Xrotation Yrotation
								JOINT lhand
								{
									OFFSET 0 0 0
CHANNELS 3 Zrotation Xrotation Yrotation
									JOINT LFingers
									{
OFFSET 0 -0.743900 0.000000
CHANNELS 3 Zrotation Xrotation Yrotation
										End Site
										{
OFFSET 0 -0.599750 0.000000
										}
									}
								}
								JOINT LThumb
								{
OFFSET 0 0.000000 0.000000
CHANNELS 3 Zrotation Xrotation Yrotation
									End Site
									{
OFFSET 0 -0.608910 0.608910
									}
								}
							}
						}
					}
				}
				JOINT RightCollar
				{
					OFFSET 0 0 0
					CHANNELS 3 Zrotation Yrotation Xrotation
					JOINT RightShoulder
					{
						OFFSET -2.93906 0.88031 0.02490
CHANNELS 3 Zrotation Xrotation Yrotation
						JOINT RightElbow
						{
OFFSET 0 -4.772540 -0.000000
CHANNELS 3 Zrotation Xrotation Yrotation
							JOINT RightWrist
							{
OFFSET 0 -2.759950 -0.000000
CHANNELS 3 Zrotation Xrotation Yrotation
								JOINT rhand
								{
									OFFSET 0 0 0
CHANNELS 3 Zrotation Xrotation Yrotation
									JOINT RFingers
									{
OFFSET 0 -0.701620 0.000000
CHANNELS 3 Zrotation Xrotation Yrotation
										End Site
										{
OFFSET 0 -0.565660 0.000000
										}
									}
								}
								JOINT RThumb
								{
OFFSET 0 0.000000 0.000000
CHANNELS 3 Zrotation Xrotation Yrotation
									End Site
									{
OFFSET 0 -0.574300 0.574300
									}
								}
							}
						}
					}
				}
			}
		}
	}
}
MOTION
Frames: 6
Frame Time: 0.008333333333333333
1.288300 15.167500 -0.928100 8.914100 8.414500 5.086600 0.000000 0.000000 0.000000 -29.868900 -14.502100 -20.713100 4.701200 13.039200 39.515300 0.645700 -2.956800 -14.461500 0.238900 -3.145600 -8.684200 0.000000 0.000000 0.000000 1.717700 18.316700 -20.086200 -7.251100 -15.539800 49.817900 -1.234300 -14.304700 -30.459900 -0.241100 3.159800 -8.723900 12.514900 -4.071900 28.342600 11.515000 -0.147200 5.420900 5.666100 -0.247600 -8.945100 -20.717400 -19.712800 5.071200 13.967200 -27.322400 -0.555400 5.612900 -13.766400 3.675400 -0.000000 -0.000000 0.000000 4.358300 5.881600 -37.144000 21.939200 -32.908300 6.552800 6.534100 -14.161700 -10.370800 0.000000 0.000000 0.000000 -7.125000 0.000000 0.000000 -17.814200 39.774700 -2.382200 -0.000000 -0.000000 0.000000 -26.040800 -10.465200 -2.379300 -20.590000 -31.346600 -5.835200 -8.472700 -3.371100 -11.257700 0.000000 0.000000 0.000000 7.125000 0.000000 -0.000000 13.058600 18.756500 8.386200
1.255392 15.172343 -0.952845 10.282960 6.426313 5.380045 0.000000 0.000000 0.000000 -31.126893 -12.949349 -20.986595 4.441113 12.725057 38.348234 0.614293 -2.723255 -14.126637 0.237768 -3.137754 -8.662532 0.000000 0.000000 0.000000 -0.086111 19.844463 -21.044913 -7.384560 -15.647376 50.314216 -1.129528 -14.428388 -29.884562 -0.341860 3.753258 -10.383978 12.479939 -4.768688 28.224584 10.394152 -1.273262 5.793784 4.829231 -0.766874 -8.438913 -21.904451 -19.545585 6.503570 13.739453 -27.394470 -0.839939 5.818108 -13.847559 3.497337 0.000000 0.000000 0.000000 4.583065 5.586626 -35.892382 22.142016 -33.137178 6.663329 6.754255 -14.586069 -10.087134 0.000000 0.000000 0.000000 -7.125000 0.000000 0.000000 -17.552622 39.521070 -2.458482 0.000000 0.000000 0.000000 -25.458564 -11.407483 -0.455525 -20.147846 -30.820004 -5.606893 -8.753400 -3.283242 -11.959316 0.000000 0.000000 0.000000 7.125000 0.000000 0.000000 12.826920 18.053218 8.434734
1.205476 15.185382 -0.973868 11.489049 4.555759 5.011464 0.000000 0.000000 0.000000 -32.256050 -11.072290 -20.509591 4.130669 12.332156 36.917580 0.577124 -2.713943 -13.679565 0.226275 -3.061684 -8.450541 0.000000 0.000000 0.000000 -1.328234 21.589723 -21.095549 -7.503916 -15.741884 50.755345 -1.219579 -13.894888 -29.989743 -0.275370 3.375059 -9.324784 11.565885 -5.353705 28.895893 9.726819 -2.298165 6.201928 4.945461 -1.228909 -8.276984 -22.746260 -19.117837 8.382088 13.094592 -27.185702 -2.021291 6.036248 -13.778213 2.823829 0.000000 0.000000 0.000000 4.132591 5.372848 -35.021199 21.824091 -32.777608 6.490368 8.040817 -14.363757 -8.918785 0.000000 0.000000 0.000000 -7.125000 0.000000 0.000000 -16.179286 38.494403 -2.675330 0.000000 0.000000 0.000000 -25.649253 -11.927724 2.740231 -20.014981 -30.660400 -5.539029 -8.783875 -3.617722 -10.873953 0.000000 0.000000 0.000000 7.125000 0.000000 0.000000 12.864594 19.121089 8.147648
1.146964 15.190924 -0.980747 13.325466 2.552750 4.789429 0.000000 0.000000 0.000000 -34.049180 -9.001024 -20.161210 3.813344 11.907549 35.405927 0.536372 -2.699881 -13.172638 0.170781 -2.662138 -7.339399 0.000000 0.000000 0.000000 -3.336471 23.220679 -21.511341 -7.663418 -15.866016 51.341000 -1.155044 -13.974370 -29.632025 -0.347375 3.787012 -10.478262 10.382336 -5.742818 28.528633 8.233145 -3.470996 7.331268 4.566605 -1.696926 -7.458494 -23.235271 -18.900597 9.157955 12.811519 -27.069073 -2.968637 6.168233 -13.715360 2.413865 0.000000 0.000000 0.000000 4.640299 4.143214 -33.826660 22.035143 -33.016709 6.604963 7.487494 -15.769574 -10.361481 0.000000 0.000000 0.000000 -7.125000 0.000000 0.000000 -17.009586 39.844350 -2.236552 0.000000 0.000000 0.000000 -25.062181 -12.458636 5.444110 -19.737557 -30.324813 -5.398219 -8.749638 -3.916174 -11.298200 0.000000 0.000000 0.000000 7.125000 0.000000 0.000000 12.864615 18.704622 8.269988
1.078764 15.196000 -0.993793 15.037844 0.905749 4.975307 0.000000 0.000000 0.000000 -35.651702 -7.322814 -20.383007 3.517264 11.488535 33.945976 0.491123 -2.460207 -12.620625 0.202868 -2.900140 -8.000826 0.000000 0.000000 0.000000 -5.408014 24.564211 -22.523621 -7.828896 -15.991932 51.943869 -1.153982 -13.797433 -29.461372 -0.376623 3.940018 -10.908252 10.076660 -6.358356 28.271394 6.575440 -4.602869 7.851346 3.178585 -2.213149 -6.860724 -23.389109 -18.837942 8.834752 12.253796 -26.936508 -3.023581 6.026322 -13.623937 2.354419 0.000000 0.000000 0.000000 5.644208 2.785547 -33.047855 21.971585 -32.944905 6.570356 7.309121 -16.041453 -10.765167 0.000000 0.000000 0.000000 -7.125000 0.000000 0.000000 -17.269233 40.217566 -2.108348 0.000000 0.000000 0.000000 -24.154354 -12.612545 8.237157 -19.589324 -30.144343 -5.323621 -8.943357 -4.293663 -11.230362 0.000000 0.000000 0.000000 7.125000 0.000000 0.000000 12.733995 18.762985 8.164747
1.015526 15.210612 -0.995400 15.514320 -0.531127 4.452089 0.000000 0.000000 0.000000 -35.958767 -5.484088 -20.131039 3.340065 11.226195 33.046703 0.459282 -2.664595 -12.163013 0.136873 -2.384665 -6.569948 0.000000 0.000000 0.000000 -5.596228 25.704862 -22.378140 -7.833494 -15.995395 51.960778 -0.948297 -14.595925 -28.806626 -0.562180 4.802446 -13.345994 10.587213 -7.095106 28.195905 5.330934 -5.574545 8.363348 1.797314 -2.652178 -6.424629 -24.153493 -18.468874 9.073704 11.499747 -26.577954 -2.766304 5.960551 -13.428293 2.315351 0.000000 0.000000 0.000000 6.475901 1.704195 -32.580950 21.671608 -32.603936 6.408035 7.219862 -16.110024 -10.768065 0.000000 0.000000 0.000000 -7.125000 0.000000 0.000000 -17.345414 40.212717 -2.120567 0.000000 0.000000 0.000000 -23.249876 -12.444752 9.776852 -19.102950 -29.546442 -5.081579 -8.603493 -3.435003 -11.911081 0.000000 0.000000 0.000000 7.125000 0.000000 0.000000 12.932658 18.107913 8.491856
